<?xml version="1.0" encoding="utf-8"?>
<!-- Generator: Adobe Illustrator 27.0.0, SVG Export Plug-In . SVG Version: 6.00 Build 0)  -->
<svg version="1.1" id="Layer_1" xmlns="http://www.w3.org/2000/svg" xmlns:xlink="http://www.w3.org/1999/xlink" x="0px" y="0px"
	 viewBox="0 0 30 30" style="enable-background:new 0 0 30 30;" xml:space="preserve">
<style type="text/css">
	.st0{fill:#FFFFFF;}
	.st1{fill:#231F20;}
</style>
<g>
	<polygon class="st0" points="18.11,2.2 5.43,2.2 5.43,27.54 25.49,27.54 25.49,10.75 	"/>
	<path class="st1" d="M25.99,28.04H4.93V1.7h13.4l7.65,8.86V28.04z M5.93,27.04h19.05v-16.1L17.88,2.7H5.93V27.04z"/>
</g>
<g>
	<rect x="17.47" y="2.46" class="st1" width="1" height="9.01"/>
</g>
<g>
	<rect x="17.72" y="10.47" class="st1" width="7.34" height="1"/>
</g>
<g>
	<path d="M8.84,15.34h1.04v5.41c0,2.15-1.06,2.81-2.45,2.81c-0.38,0-0.85-0.08-1.12-0.19l0.16-0.85c0.22,0.08,0.53,0.16,0.88,0.16
		c0.94,0,1.49-0.42,1.49-2V15.34z"/>
	<path d="M11.63,15.44c0.5-0.08,1.16-0.16,2-0.16c1.03,0,1.79,0.24,2.27,0.67c0.44,0.38,0.71,0.97,0.71,1.69
		c0,0.73-0.22,1.31-0.62,1.73c-0.55,0.59-1.45,0.89-2.47,0.89c-0.31,0-0.6-0.01-0.84-0.07v3.24h-1.04V15.44z M12.67,19.34
		c0.23,0.06,0.52,0.08,0.86,0.08c1.26,0,2.03-0.61,2.03-1.73c0-1.07-0.76-1.58-1.91-1.58c-0.46,0-0.8,0.04-0.98,0.08V19.34z"/>
	<path d="M24.16,23.07c-0.47,0.17-1.39,0.44-2.48,0.44c-1.22,0-2.23-0.31-3.02-1.07c-0.7-0.67-1.13-1.75-1.13-3.01
		c0.01-2.41,1.67-4.17,4.38-4.17c0.94,0,1.67,0.2,2.01,0.37l-0.25,0.85c-0.43-0.19-0.97-0.35-1.79-0.35c-1.97,0-3.25,1.22-3.25,3.25
		c0,2.05,1.24,3.26,3.12,3.26c0.68,0,1.15-0.1,1.39-0.22v-2.41H21.5v-0.84h2.66V23.07z"/>
</g>
</svg>
